<svg xmlns="http://www.w3.org/2000/svg" width="138" height="44" fill="none"><path fill="#fff" d="M62.668 16.636c1.408 0 2.53.462 3.366 1.386.836.924 1.254 2.222 1.254 3.894V29h-3.08v-6.732c0-.968-.25-1.716-.748-2.244-.499-.543-1.18-.814-2.046-.814-.88 0-1.584.286-2.112.858-.528.572-.792 1.393-.792 2.464V29h-3.102V12.72h3.102v6.534c.323-.821.85-1.46 1.584-1.914.748-.47 1.606-.704 2.574-.704Zm13.421.022c1.188 0 2.252.25 3.19.748a5.44 5.44 0 0 1 2.244 2.178c.543.939.814 2.046.814 3.322 0 1.276-.271 2.383-.814 3.322a5.624 5.624 0 0 1-2.244 2.178c-.938.499-2.002.748-3.19.748-1.188 0-2.258-.25-3.212-.748a5.662 5.662 0 0 1-2.222-2.178c-.542-.939-.814-2.046-.814-3.322 0-1.276.272-2.383.814-3.322a5.474 5.474 0 0 1 2.222-2.178c.954-.499 2.024-.748 3.212-.748Zm0 2.684c-.865 0-1.598.308-2.2.924-.601.601-.902 1.481-.902 2.64s.301 2.046.902 2.662c.602.601 1.335.902 2.2.902.866 0 1.599-.3 2.2-.902.602-.616.902-1.503.902-2.662s-.3-2.039-.902-2.64a2.958 2.958 0 0 0-2.2-.924Zm24.391-2.706c1.481 0 2.647.462 3.498 1.386.865.91 1.298 2.207 1.298 3.894V29h-3.08v-6.732c0-.939-.242-1.657-.726-2.156-.47-.513-1.122-.77-1.958-.77-.866 0-1.555.271-2.068.814-.514.543-.77 1.335-.77 2.376V29h-3.08v-6.732c0-.939-.242-1.657-.726-2.156-.47-.513-1.122-.77-1.958-.77-.866 0-1.555.271-2.068.814-.514.543-.77 1.335-.77 2.376V29H84.97V16.812h3.102v2.31c.322-.792.828-1.4 1.518-1.826.704-.44 1.518-.66 2.442-.66.982 0 1.833.235 2.552.704.733.47 1.283 1.144 1.65 2.024a4.556 4.556 0 0 1 1.694-1.98 4.564 4.564 0 0 1 2.552-.748Zm19.423 5.808c0 .308-.037.66-.11 1.056h-8.932c.044 1.085.337 1.885.88 2.398.543.513 1.217.77 2.024.77.719 0 1.313-.176 1.782-.528.484-.352.792-.829.924-1.43h3.278a5.24 5.24 0 0 1-1.034 2.288c-.528.675-1.21 1.203-2.046 1.584-.821.381-1.738.572-2.75.572-1.188 0-2.244-.25-3.168-.748a5.405 5.405 0 0 1-2.156-2.178c-.513-.939-.77-2.046-.77-3.322 0-1.276.257-2.383.77-3.322a5.23 5.23 0 0 1 2.156-2.178c.924-.499 1.98-.748 3.168-.748 1.203 0 2.251.25 3.146.748a5.162 5.162 0 0 1 2.09 2.068c.499.865.748 1.855.748 2.97Zm-3.124-.308c.044-.997-.22-1.753-.792-2.266-.557-.513-1.247-.77-2.068-.77-.836 0-1.54.257-2.112.77-.572.513-.887 1.269-.946 2.266h5.918Zm8.274 4.268h5.984V29h-9.372v-2.464l5.61-7.15h-5.478v-2.574h9.02v2.442l-5.764 7.15Z"/><rect width="44" height="44" fill="#EB6753" rx="20"/><g clip-path="url(#a)"><path fill="#fff" d="m32.772 22.117-1.124-.976v9.209c0 1.55-1.26 2.81-2.81 2.81h-3.376c.284-.29.584-.613.886-.962.265-.306.512-.61.741-.911h1.749c.516 0 .937-.42.937-.937V19.514L22 12.762l-7.775 6.752V30.35c0 .516.42.937.937.937h1.749c.23.301.476.605.741.911.302.349.602.672.886.962h-3.376c-1.55 0-2.81-1.26-2.81-2.81V21.14l-1.124.976L10 20.702l12-10.42 12 10.42-1.228 1.415ZM22 24.21a1.405 1.405 0 1 0 0 2.81 1.405 1.405 0 0 0 0-2.81Zm5.385 1.689c0 1.487-.825 3.194-2.453 5.072a20.939 20.939 0 0 1-2.34 2.302l-.592.482-.591-.482a20.939 20.939 0 0 1-2.341-2.302c-1.628-1.878-2.453-3.585-2.453-5.072v-.28A5.391 5.391 0 0 1 22 20.233a5.391 5.391 0 0 1 5.385 5.386v.28Zm-1.873-.28A3.516 3.516 0 0 0 22 22.107a3.516 3.516 0 0 0-3.512 3.512v.28c0 .995.709 2.36 1.996 3.846a19.617 19.617 0 0 0 1.519 1.558c1.34-1.23 3.508-3.598 3.508-5.404v-.28Z"/></g><defs><clipPath id="a"><path fill="#fff" d="M10 10h24v24H10z"/></clipPath></defs></svg>